<svg width="150" height="100" viewBox="0 0 150 100" fill="none" xmlns="http://www.w3.org/2000/svg">
<path d="M132.419 37.3289C132.01 36.7839 131.602 36.3751 129.558 36.2389C129.013 36.2389 127.378 36.1023 124.516 36.1023C117.022 36.1023 111.845 38.4186 109.256 42.9151C109.937 38.4186 105.577 36.1023 96.0389 36.1023C84.866 36.1023 77.7807 40.5988 74.9193 49.7279C73.8292 53.1342 73.8292 55.8594 74.6467 58.0394H71.9216C69.8778 58.176 67.1527 58.312 65.3813 58.312C61.2937 58.312 58.7048 57.6307 57.751 56.2682C56.9335 55.0419 56.9335 52.7255 58.0236 49.3191C59.7949 43.7327 64.0188 41.28 70.8316 41.28C74.3743 41.28 77.7807 41.6889 77.7807 41.6889C78.1896 41.6889 78.4619 41.1439 78.4619 40.7352L78.3254 40.3263L78.0531 38.4187C77.9165 37.1924 76.9631 36.5112 75.328 36.2386C73.8292 36.1021 72.6029 36.1021 70.9678 36.1021H70.8313C61.9746 36.1021 55.7068 39.0997 52.3005 44.8224C53.5268 38.9634 49.4391 36.1021 40.0375 36.1021C34.7235 36.1021 30.9084 36.2386 28.7282 36.5109C26.9569 36.7832 25.8669 37.4647 25.4581 38.691L24.6405 41.1436C24.504 41.5525 24.7771 41.8249 25.3219 41.8249C25.7308 41.8249 27.3657 41.5523 30.0908 41.416C33.7697 41.1434 36.3586 41.0071 38.1299 41.0071C43.3076 41.0071 45.624 42.3697 44.8064 44.9585C44.6699 45.5036 44.2614 45.9123 43.5801 46.0485C38.6749 46.8661 34.7235 47.4111 31.8622 47.8199C23.6868 48.91 18.9178 51.3626 17.6915 55.4502C15.9202 61.0367 20.2804 63.7618 30.7721 63.7618C35.9498 63.7618 40.4462 63.4892 43.9889 62.808C46.0327 62.3991 47.1228 61.9905 47.5315 60.6279L49.4391 54.3602C49.3026 60.6279 53.5268 63.7618 62.5196 63.7618C66.3348 63.7618 70.0137 63.6252 71.7851 63.3529C73.5564 63.0803 74.5102 62.6716 74.9189 61.309L75.3278 59.4015C77.2354 62.3991 81.4594 63.8979 87.8634 63.8979C94.6761 63.8979 98.6276 63.7613 99.7176 63.3529C100.671 63.0803 101.216 62.5354 101.489 61.8541C101.489 61.7175 101.489 61.5815 101.625 61.4452L102.443 58.8563C102.58 58.4474 102.306 58.1751 101.762 58.1751L97.4015 58.4476C94.5402 58.5842 92.2239 58.7202 90.5888 58.7202C87.4549 58.7202 85.4111 58.4476 84.1847 58.0388C82.4134 57.3576 81.5959 56.1313 81.7321 54.0874L95.4939 52.3161C101.625 51.4986 105.849 49.591 107.893 46.5933L103.124 62.5353C102.988 62.8078 103.124 63.0803 103.261 63.2166C103.397 63.3531 103.67 63.4891 104.215 63.4891H109.937C110.891 63.4891 111.3 62.9441 111.436 62.5353L116.478 44.9583C117.159 42.642 119.203 41.552 123.018 41.552C126.424 41.552 128.877 41.552 130.512 41.6885H130.648C130.921 41.6885 131.466 41.552 131.875 40.871L132.692 38.4184C132.692 38.0095 132.692 37.6008 132.42 37.3284L132.419 37.3289ZM40.5828 58.3123C38.8115 58.5848 36.2226 58.7212 32.9525 58.7212C27.0935 58.7212 24.6409 57.4948 25.3222 55.1785C25.8672 53.5434 27.366 52.4534 29.8186 52.1809L43.0354 50.4096L40.5828 58.3123ZM101.489 44.1417C100.944 45.913 98.3552 47.1393 93.7225 47.8206L82.6859 49.3194L82.9584 48.3656C83.9122 45.368 85.1385 43.4604 86.7736 42.3704C88.4087 41.2803 91.1337 40.7353 94.949 40.7353C99.9903 40.8719 102.17 41.9616 101.489 44.1417H101.489Z" fill="#83B81A"/>
</svg>
