<svg width="255" height="150" viewBox="0 0 255 150" fill="none" xmlns="http://www.w3.org/2000/svg">
<rect width="255" height="150" fill="#180862"/>
<path d="M145.143 76.7079C145.114 71.7898 147.342 68.0832 151.842 65.3502C149.325 61.7445 145.518 59.7614 140.499 59.3792C135.746 59.0043 130.547 62.1484 128.643 62.1484C126.631 62.1484 122.031 59.5091 118.41 59.5091C110.94 59.6244 103 65.4655 103 77.3497C103 80.8616 103.642 84.4889 104.925 88.2243C106.642 93.1424 112.829 105.192 119.283 104.998C122.658 104.918 125.045 102.604 129.436 102.604C133.698 102.604 135.905 104.998 139.669 104.998C146.181 104.904 151.777 93.95 153.407 89.0175C144.674 84.8999 145.143 76.9603 145.143 76.7079ZM137.564 54.7136C141.22 50.3724 140.888 46.4206 140.78 45C137.549 45.1875 133.814 47.1994 131.686 49.6729C129.343 52.3266 127.965 55.6078 128.261 59.3071C131.751 59.574 134.939 57.7783 137.564 54.7136Z" fill="white"/>
</svg>
