<svg width="20" height="20" viewBox="0 0 20 20" fill="none" xmlns="http://www.w3.org/2000/svg">
<path d="M10.5 2C8.19331 2 7.90325 2.01063 6.99694 2.051C6.09063 2.0935 5.47331 2.23587 4.9325 2.44625C4.36522 2.65962 3.8514 2.99432 3.42694 3.42694C2.99458 3.85161 2.65993 4.36538 2.44625 4.9325C2.23587 5.47225 2.09244 6.09062 2.051 6.99375C2.01063 7.90219 2 8.19119 2 10.5011C2 12.8088 2.01063 13.0978 2.051 14.0041C2.0935 14.9094 2.23587 15.5267 2.44625 16.0675C2.66406 16.6264 2.95413 17.1002 3.42694 17.5731C3.89869 18.0459 4.37256 18.337 4.93144 18.5537C5.47331 18.7641 6.08956 18.9076 6.99481 18.949C7.90219 18.9894 8.19119 19 10.5 19C12.8088 19 13.0968 18.9894 14.0041 18.949C14.9083 18.9065 15.5278 18.7641 16.0686 18.5537C16.6355 18.3403 17.1489 18.0056 17.5731 17.5731C18.0459 17.1002 18.3359 16.6264 18.5537 16.0675C18.7631 15.5267 18.9065 14.9094 18.949 14.0041C18.9894 13.0978 19 12.8088 19 10.5C19 8.19119 18.9894 7.90219 18.949 6.99481C18.9065 6.09063 18.7631 5.47225 18.5537 4.9325C18.3401 4.36536 18.0054 3.85159 17.5731 3.42694C17.1487 2.99416 16.6349 2.65944 16.0675 2.44625C15.5256 2.23587 14.9073 2.09244 14.0031 2.051C13.0957 2.01063 12.8077 2 10.4979 2H10.5011H10.5ZM9.73819 3.53212H10.5011C12.7706 3.53212 13.0394 3.53956 13.9351 3.581C14.7638 3.61819 15.2143 3.75738 15.5139 3.87319C15.9102 4.02725 16.1939 4.21213 16.4914 4.50962C16.7889 4.80713 16.9728 5.08975 17.1268 5.48713C17.2437 5.78569 17.3818 6.23619 17.419 7.06494C17.4604 7.96063 17.4689 8.22944 17.4689 10.4979C17.4689 12.7663 17.4604 13.0362 17.419 13.9319C17.3818 14.7606 17.2426 15.2101 17.1268 15.5097C16.9905 15.8788 16.773 16.2125 16.4904 16.4861C16.1929 16.7836 15.9103 16.9674 15.5129 17.1215C15.2154 17.2384 14.7649 17.3765 13.9351 17.4148C13.0394 17.4551 12.7706 17.4647 10.5011 17.4647C8.23156 17.4647 7.96169 17.4551 7.066 17.4148C6.23725 17.3765 5.78781 17.2384 5.48819 17.1215C5.11897 16.9854 4.78495 16.7683 4.51069 16.4861C4.2278 16.212 4.00996 15.878 3.87319 15.5086C3.75738 15.2101 3.61819 14.7596 3.581 13.9308C3.54063 13.0351 3.53212 12.7663 3.53212 10.4957C3.53212 8.22625 3.54063 7.9585 3.581 7.06281C3.61925 6.23406 3.75738 5.78356 3.87425 5.48394C4.02831 5.08763 4.21319 4.80394 4.51069 4.50644C4.80819 4.20894 5.09081 4.02513 5.48819 3.87106C5.78781 3.75419 6.23725 3.61606 7.066 3.57781C7.85013 3.54169 8.154 3.53106 9.73819 3.53V3.53212ZM15.0379 4.94313C14.904 4.94313 14.7714 4.96951 14.6476 5.02077C14.5238 5.07203 14.4114 5.14716 14.3167 5.24188C14.222 5.33659 14.1468 5.44904 14.0956 5.57279C14.0443 5.69654 14.0179 5.82918 14.0179 5.96312C14.0179 6.09707 14.0443 6.22971 14.0956 6.35346C14.1468 6.47721 14.222 6.58966 14.3167 6.68437C14.4114 6.77909 14.5238 6.85422 14.6476 6.90548C14.7714 6.95674 14.904 6.98313 15.0379 6.98313C15.3085 6.98313 15.5679 6.87566 15.7592 6.68437C15.9505 6.49309 16.0579 6.23365 16.0579 5.96312C16.0579 5.6926 15.9505 5.43316 15.7592 5.24188C15.5679 5.05059 15.3085 4.94313 15.0379 4.94313ZM10.5011 6.13525C9.92208 6.12622 9.34707 6.23245 8.80954 6.44777C8.272 6.6631 7.78267 6.9832 7.37004 7.38945C6.9574 7.7957 6.6297 8.27998 6.40602 8.81409C6.18234 9.3482 6.06714 9.92147 6.06714 10.5005C6.06714 11.0796 6.18234 11.6529 6.40602 12.187C6.6297 12.7211 6.9574 13.2054 7.37004 13.6116C7.78267 14.0179 8.272 14.338 8.80954 14.5533C9.34707 14.7686 9.92208 14.8748 10.5011 14.8658C11.647 14.8479 12.74 14.3802 13.544 13.5635C14.3481 12.7467 14.7988 11.6466 14.7988 10.5005C14.7988 9.35444 14.3481 8.25431 13.544 7.43761C12.74 6.6209 11.647 6.15313 10.5011 6.13525ZM10.5011 7.66631C11.2526 7.66631 11.9734 7.96486 12.5048 8.49628C13.0362 9.0277 13.3348 9.74846 13.3348 10.5C13.3348 11.2515 13.0362 11.9723 12.5048 12.5037C11.9734 13.0351 11.2526 13.3337 10.5011 13.3337C9.74952 13.3337 9.02876 13.0351 8.49734 12.5037C7.96592 11.9723 7.66738 11.2515 7.66738 10.5C7.66738 9.74846 7.96592 9.0277 8.49734 8.49628C9.02876 7.96486 9.74952 7.66631 10.5011 7.66631Z" fill="white"/>
</svg>
