<svg width="24" height="24" viewBox="0 0 24 24" fill="none" xmlns="http://www.w3.org/2000/svg">
<path d="M6.78858 2.26703L8.21143 1.83846C8.85914 1.64305 9.55582 1.69003 10.1714 1.97062C10.787 2.25122 11.2795 2.74625 11.5569 3.36332L12.4423 5.33303C12.6809 5.86365 12.7473 6.45566 12.6324 7.02598C12.5174 7.5963 12.2267 8.11631 11.8011 8.51303L10.254 9.9556C10.2349 9.97346 10.2192 9.99467 10.2077 10.0182C10.0457 10.349 10.2917 11.2327 11.0623 12.5682C11.9314 14.0733 12.6026 14.6682 12.9137 14.5765L14.9443 13.955C15.5004 13.7852 16.0957 13.7937 16.6467 13.9792C17.1978 14.1647 17.677 14.518 18.0171 14.9896L19.2754 16.7322C19.6705 17.2793 19.8535 17.9513 19.7904 18.6232C19.7273 19.2951 19.4225 19.9212 18.9326 20.3853L17.85 21.4096C17.4736 21.7662 17.0164 22.0264 16.5176 22.1681C16.0188 22.3097 15.4931 22.3286 14.9854 22.223C11.9709 21.5956 9.27001 19.1682 6.85972 14.9939C4.44858 10.817 3.69686 7.25989 4.66543 4.33446C4.82757 3.84469 5.10521 3.40115 5.4749 3.0413C5.84459 2.68146 6.29547 2.41589 6.78943 2.26703H6.78858ZM7.16058 3.49789C6.86419 3.58716 6.59364 3.74647 6.37179 3.96234C6.14995 4.17822 5.98333 4.44432 5.88601 4.73817C5.05115 7.25903 5.72743 10.4613 7.97315 14.351C10.2171 18.2382 12.6497 20.4239 15.2469 20.9639C15.5516 21.0273 15.8672 21.0159 16.1666 20.9308C16.466 20.8458 16.7404 20.6895 16.9663 20.4753L18.048 19.4519C18.3119 19.2021 18.4762 18.8649 18.5102 18.5031C18.5443 18.1413 18.4458 17.7794 18.2331 17.4847L16.9749 15.7413C16.7917 15.4874 16.5338 15.2972 16.2371 15.1973C15.9405 15.0974 15.62 15.0928 15.3206 15.1842L13.2849 15.8073C12.1586 16.1425 11.0991 15.2039 9.94886 13.2102C8.97429 11.5233 8.63658 10.3045 9.05315 9.45332C9.13372 9.28874 9.24343 9.14046 9.37715 9.01532L10.9243 7.57274C11.1535 7.35913 11.3101 7.07909 11.3721 6.77194C11.434 6.46479 11.3982 6.14595 11.2697 5.86017L10.3843 3.89132C10.2349 3.55897 9.96972 3.29234 9.63817 3.14123C9.30661 2.99013 8.93139 2.96487 8.58258 3.07017L7.15972 3.49874L7.16058 3.49789Z" fill="white"/>
</svg>
