<svg width="14" height="14" viewBox="0 0 14 14" fill="none" xmlns="http://www.w3.org/2000/svg">
<g opacity="0.4" clip-path="url(#clip0_42_1091)">
<path d="M7 0.875C3.13359 0.875 0 3.4207 0 6.5625C0 7.91875 0.585156 9.16016 1.55859 10.1363C1.2168 11.5145 0.0738281 12.7422 0.0601563 12.7559C0 12.8188 -0.0164062 12.9117 0.0191406 12.9938C0.0546875 13.0758 0.13125 13.125 0.21875 13.125C2.03164 13.125 3.39063 12.2555 4.06328 11.7195C4.95742 12.0559 5.95 12.25 7 12.25C10.8664 12.25 14 9.7043 14 6.5625C14 3.4207 10.8664 0.875 7 0.875ZM3.5 7.4375C3.01602 7.4375 2.625 7.04648 2.625 6.5625C2.625 6.07852 3.01602 5.6875 3.5 5.6875C3.98398 5.6875 4.375 6.07852 4.375 6.5625C4.375 7.04648 3.98398 7.4375 3.5 7.4375ZM7 7.4375C6.51602 7.4375 6.125 7.04648 6.125 6.5625C6.125 6.07852 6.51602 5.6875 7 5.6875C7.48398 5.6875 7.875 6.07852 7.875 6.5625C7.875 7.04648 7.48398 7.4375 7 7.4375ZM10.5 7.4375C10.016 7.4375 9.625 7.04648 9.625 6.5625C9.625 6.07852 10.016 5.6875 10.5 5.6875C10.984 5.6875 11.375 6.07852 11.375 6.5625C11.375 7.04648 10.984 7.4375 10.5 7.4375Z" fill="black"/>
</g>
<defs>
<clipPath id="clip0_42_1091">
<rect width="14" height="14" fill="white"/>
</clipPath>
</defs>
</svg>
