<svg width="150" height="100" viewBox="0 0 150 100" fill="none" xmlns="http://www.w3.org/2000/svg">
<path d="M72.6657 41.7212L64.3861 48.0907C63.537 44.9055 60.7759 42.5694 57.3787 42.5694H51.4343V57.2194H57.3787C60.7757 57.2194 63.7476 54.8829 64.3846 51.6982L72.6655 58.0675L80.9464 51.6982V57.2194H90.2872V54.2463H84.1313V42.5695H80.7332V48.0888L72.8773 54.46L71.1782 52.973L75.0013 49.9998L79.0342 46.8151L76.6995 44.9054L68.8436 51.0613L67.1454 49.5747L75.0013 43.6304L72.6649 41.7207L72.6657 41.7212ZM54.6194 45.5407H57.1676C57.6984 45.5407 58.2162 45.6617 58.6938 45.8807C59.1716 46.0996 59.6081 46.4175 59.9797 46.8157C60.3513 47.2138 60.6571 47.6907 60.8695 48.2281C61.0817 48.7655 61.2004 49.3634 61.2004 50.0003C61.2003 50.5744 61.098 51.1439 60.8984 51.6822C60.7026 52.2097 60.4176 52.6941 60.0592 53.1054C59.701 53.5169 59.2701 53.8556 58.7825 54.0911C58.2949 54.3267 57.7513 54.4583 57.1676 54.4583H54.6195V45.5407H54.6194ZM100.904 54.2472V57.2197H91.562V42.5697H94.959V54.2465H100.904L100.904 54.2472ZM75 16.6667C56.7407 16.6667 41.6666 31.7408 41.6666 50C41.6666 68.2593 56.5287 83.3334 75 83.3334C93.4713 83.3334 108.333 68.4713 108.333 50C108.333 31.5287 93.2592 16.6667 75 16.6667ZM75 20.0647C77.07 20.0647 79.0896 20.2725 81.0401 20.6706C82.9679 21.0637 84.8519 21.6471 86.6644 22.4121C88.4449 23.1645 90.148 24.0882 91.7498 25.17C93.3394 26.2428 94.8225 27.4654 96.1787 28.8213C97.5345 30.1775 98.7572 31.6606 99.83 33.2502C100.912 34.852 101.835 36.5551 102.588 38.3356C103.353 40.1481 103.936 42.0321 104.329 43.9598C104.728 45.9105 104.935 47.93 104.935 50C104.935 52.07 104.727 54.0896 104.329 56.0402C103.936 57.9679 103.353 59.8519 102.588 61.6645C101.835 63.4449 100.912 65.1481 99.83 66.7498C98.7572 68.3395 97.5345 69.8225 96.1787 71.1787C94.8224 72.5346 93.3394 73.7573 91.7498 74.83C90.148 75.9119 88.4449 76.8355 86.6644 77.5879C84.8518 78.3529 82.9679 78.9363 81.0401 79.3295C79.0895 79.7276 77.07 79.9353 75 79.9353C72.93 79.9353 70.9103 79.7275 68.9598 79.3295C67.0316 78.9386 65.1472 78.356 63.3348 77.5906C61.5544 76.8379 59.8514 75.9141 58.2496 74.8322C55.0628 72.6824 52.3196 69.9393 50.1696 66.7526C49.0879 65.1508 48.1643 63.4477 47.4117 61.6674C46.6467 59.8546 46.0633 57.9704 45.6701 56.0424C45.2721 54.0924 45.0643 52.073 45.0643 50.0026C45.0643 47.9322 45.2721 45.9128 45.6701 43.9628C46.0632 42.0348 46.6466 40.1506 47.4117 38.3378C48.1643 36.5575 49.0879 34.8544 50.1696 33.2526C51.2421 31.6629 52.4648 30.1799 53.8209 28.8239C55.1768 27.4679 56.6599 26.2452 58.2496 25.1726C59.8514 24.0909 61.5545 23.1673 63.3348 22.4147C65.1476 21.6497 67.0318 21.0663 68.9598 20.6732C70.9098 20.2751 72.9292 20.0673 74.9996 20.0673L75 20.0647Z" fill="#007DB8"/>
</svg>
