<svg width="285" height="150" viewBox="0 0 285 150" fill="none" xmlns="http://www.w3.org/2000/svg">
<rect width="285" height="150" fill="white"/>
<path d="M87.0685 64.4647C84.0479 64.4647 80.8387 65.7862 78.7621 68.6179V65.0313H71.7772V90.7055H78.7621V75.9805C78.7621 73.3377 80.8387 70.5059 84.6145 70.5059C87.4462 70.5059 90.4668 72.5825 90.4668 75.9805V90.5167H97.4517V74.6591C97.6403 68.8068 93.2982 64.4647 87.0685 64.4647M147.667 64.8425L141.249 82.3989L134.83 64.8425H126.901L137.473 90.5167H145.213L155.596 64.8425H147.667ZM64.226 82.5877C61.2054 84.8532 59.5062 85.2309 56.8633 85.2309C54.4093 85.2309 52.5213 84.4758 51.1999 83.1543L69.134 75.6031C68.7566 72.7714 67.6237 70.3171 66.1137 68.4294C63.6594 65.5976 60.2614 64.2762 55.9196 64.2762C48.1796 64.2762 42.3272 69.9397 42.3272 77.4909C42.3272 85.2309 48.1796 90.7059 56.6745 90.7059C61.3939 90.7059 66.3023 88.4404 68.5677 85.7972L64.226 82.5877V82.5877ZM50.6336 72.5825C51.7665 70.8834 53.6539 69.9397 56.1082 69.9397C58.5622 69.9397 60.6388 71.45 61.5828 73.5265L49.3121 78.6237C48.9347 76.1694 49.6899 74.0928 50.6336 72.5825V72.5825ZM41.7609 84.098H25.7145V57.2913H18.5407V90.5167H41.7609V84.098ZM168.245 90.8941C160.505 90.8941 154.464 85.2309 154.464 77.6794C154.464 70.3167 160.505 64.4647 168.245 64.4647C175.984 64.4647 182.026 70.1282 182.026 77.6794C182.214 85.2309 176.173 90.8941 168.245 90.8941ZM168.245 70.5059C164.28 70.5059 161.448 73.5266 161.448 77.6797C161.448 81.644 164.469 84.8535 168.245 84.8535C172.209 84.8535 175.041 81.8329 175.041 77.6797C175.229 73.7151 172.209 70.5059 168.245 70.5059ZM114.064 90.8941C106.324 90.8941 100.283 85.2309 100.283 77.6794C100.283 70.3167 106.324 64.4647 114.064 64.4647C121.804 64.4647 127.845 70.1282 127.845 77.6794C127.845 85.2306 121.805 90.8941 114.064 90.8941ZM114.064 70.5059C110.1 70.5059 107.268 73.5266 107.268 77.6797C107.268 81.644 110.288 84.8535 114.064 84.8535C118.029 84.8535 120.86 81.8329 120.86 77.6797C121.049 73.7151 118.029 70.5059 114.064 70.5059ZM183.158 87.496H182.026V86.9298H185.046V87.496H183.913V90.5167H183.158V87.496ZM185.801 86.9301H186.556L187.689 88.6293L188.822 86.9301H189.577V90.7059H188.822V88.0627L187.689 89.7618L186.556 88.0627V90.7059H185.801V86.9301Z" fill="#E22319"/>
</svg>
