<svg width="24" height="24" viewBox="0 0 24 24" fill="none" xmlns="http://www.w3.org/2000/svg">
<path d="M18.6 4.7998C19.3956 4.7998 20.1587 5.11588 20.7213 5.67848C21.2839 6.24109 21.6 7.00416 21.6 7.7998V17.3998C21.6 18.1955 21.2839 18.9585 20.7213 19.5211C20.1587 20.0837 19.3956 20.3998 18.6 20.3998H5.39999C4.60434 20.3998 3.84128 20.0837 3.27867 19.5211C2.71606 18.9585 2.39999 18.1955 2.39999 17.3998V7.7998C2.39999 7.00416 2.71606 6.24109 3.27867 5.67848C3.84128 5.11588 4.60434 4.7998 5.39999 4.7998H18.6ZM20.4 9.553L12.3048 14.317C12.2283 14.3619 12.1427 14.3893 12.0543 14.3972C11.9659 14.4051 11.8769 14.3933 11.7936 14.3626L11.6952 14.317L3.59999 9.5554V17.3998C3.59999 17.8772 3.78964 18.335 4.1272 18.6726C4.46477 19.0102 4.9226 19.1998 5.39999 19.1998H18.6C19.0774 19.1998 19.5352 19.0102 19.8728 18.6726C20.2104 18.335 20.4 17.8772 20.4 17.3998V9.553ZM18.6 5.9998H5.39999C4.9226 5.9998 4.46477 6.18945 4.1272 6.52701C3.78964 6.86458 3.59999 7.32242 3.59999 7.7998V8.1622L12 13.1038L20.4 8.15981V7.7998C20.4 7.32242 20.2104 6.86458 19.8728 6.52701C19.5352 6.18945 19.0774 5.9998 18.6 5.9998Z" fill="white"/>
</svg>
