<svg width="110" height="110" viewBox="0 0 110 110" fill="none" xmlns="http://www.w3.org/2000/svg">
<circle cx="55" cy="55" r="55" fill="#180862"/>
<g clip-path="url(#clip0_112_789)">
<path d="M57.3701 55.9807L67.1875 55L57.3701 54.0181L63.6182 46.3818L55.9815 52.6303L55 42.8125L54.0181 52.6303L46.3818 46.3818L52.6299 54.0181L42.8125 55L52.6299 55.9807L46.3818 63.6178L54.0181 57.3701L55 67.1875L55.9815 57.3701L63.6182 63.6178L57.3701 55.9807Z" fill="white"/>
</g>
<path d="M56.1387 16.1309H56.1485C56.4935 16.1309 56.7588 16.0609 56.9444 15.9209C57.1332 15.7777 57.2276 15.584 57.2276 15.3398C57.2276 15.0924 57.1413 14.8955 56.9688 14.749C56.7995 14.5993 56.4935 14.4577 56.0508 14.3242C55.2468 14.0931 54.6592 13.8262 54.2881 13.5234C53.9203 13.2174 53.7364 12.8073 53.7364 12.293C53.7364 11.7754 53.9594 11.3506 54.4053 11.0186C54.8513 10.6865 55.4226 10.5205 56.1192 10.5205C56.8191 10.5205 57.3903 10.7061 57.8331 11.0771C58.2758 11.445 58.489 11.9072 58.4727 12.4639L58.4678 12.4883L57.2227 12.4883C57.2227 12.1855 57.1218 11.9447 56.92 11.7656C56.7214 11.5866 56.4496 11.4971 56.1045 11.4971C55.7595 11.4971 55.4909 11.5719 55.2989 11.7217C55.1101 11.8682 55.0157 12.057 55.0157 12.2881C55.0157 12.516 55.1117 12.6999 55.3038 12.8398C55.4991 12.9766 55.8506 13.1247 56.3584 13.2842C57.0844 13.486 57.6231 13.7497 57.9747 14.0752C58.3295 14.3975 58.5069 14.8239 58.5069 15.3545C58.5069 15.8851 58.292 16.3099 57.8623 16.6289C57.4359 16.9447 56.863 17.1025 56.1436 17.1025C55.6716 17.1025 55.2403 17.0244 54.8497 16.8682C54.459 16.7087 54.1449 16.471 53.9073 16.1553C53.6696 15.8395 53.5541 15.4733 53.5606 15.0566L53.5704 15.0273H54.8155C54.8155 15.763 55.2566 16.1309 56.1387 16.1309Z" fill="white"/>
<path d="M68.1162 18.1068L66.9095 17.6676L69.0972 11.6569L71.3685 12.4835C72.0567 12.734 72.5368 13.0854 72.8086 13.5377C73.0805 13.99 73.1145 14.496 72.9108 15.0558C72.6892 15.6645 72.2076 15.9933 71.4659 16.042C72.0603 16.4835 72.2201 17.0821 71.9451 17.8376L71.7831 18.2827C71.7129 18.4754 71.6706 18.6678 71.6561 18.86C71.6427 19.0491 71.6714 19.2033 71.7423 19.3227L71.7106 19.4098L70.4671 18.9573C70.344 18.7531 70.3815 18.3788 70.5797 17.8343L70.735 17.4076C70.8441 17.1078 70.8461 16.8453 70.7411 16.62C70.6402 16.3927 70.4399 16.2245 70.1401 16.1154L68.9913 15.7025L68.1162 18.1068ZM69.9683 13.0183L69.3303 14.7711L70.3719 15.1502C71.0449 15.3951 71.4849 15.2331 71.692 14.6642C71.7944 14.3827 71.7904 14.1319 71.6801 13.9116C71.5697 13.6913 71.354 13.5227 71.0328 13.4058L69.9683 13.0183Z" fill="white"/>
<path d="M81.6303 24.8308L81.6378 24.8371C81.9021 25.0589 82.1504 25.1758 82.3825 25.1878C82.6192 25.1995 82.816 25.1118 82.9729 24.9247C83.1319 24.7352 83.1924 24.5289 83.1544 24.3058C83.121 24.0823 82.9776 23.7771 82.7243 23.3903C82.2569 22.6964 81.9784 22.1143 81.8887 21.6438C81.8036 21.173 81.9264 20.7406 82.257 20.3466C82.5897 19.9501 83.0335 19.768 83.5886 19.8003C84.1437 19.8326 84.688 20.0727 85.2216 20.5205C85.7578 20.9703 86.0761 21.4797 86.1767 22.0485C86.2794 22.6149 86.1456 23.106 85.7754 23.522L85.7559 23.5375L84.8021 22.7372C84.9967 22.5053 85.0742 22.2559 85.0347 21.989C84.9977 21.7242 84.847 21.4809 84.5827 21.2591C84.3184 21.0373 84.0645 20.9221 83.8211 20.9133C83.5824 20.9042 83.3887 20.9881 83.2401 21.1652C83.0936 21.3397 83.049 21.5423 83.1061 21.773C83.1679 22.0033 83.342 22.3427 83.6285 22.7913C84.0548 23.4126 84.298 23.9608 84.3581 24.4362C84.4228 24.9111 84.2846 25.3518 83.9435 25.7583C83.6024 26.1647 83.1648 26.3521 82.6306 26.3202C82.1009 26.288 81.5606 26.0407 81.0095 25.5783C80.6479 25.2749 80.3677 24.9378 80.1689 24.567C79.9722 24.1937 79.8843 23.8098 79.9053 23.4151C79.9262 23.0205 80.0731 22.6657 80.3459 22.3507L80.3722 22.3345L81.326 23.1349C80.8531 23.6984 80.9546 24.2637 81.6303 24.8308Z" fill="white"/>
<path d="M96.6347 49.5539L96.8492 50.7705L96.826 50.7796C96.1454 50.9128 95.5704 50.801 95.1009 50.4442C94.632 50.0905 94.3305 49.5338 94.1966 48.7741C94.0626 48.0143 94.1961 47.3561 94.5971 46.7995C94.9981 46.2429 95.5865 45.8962 96.3622 45.7594L97.6125 45.539C98.3819 45.4033 99.0509 45.5233 99.6196 45.899C100.188 46.2747 100.54 46.8425 100.674 47.6022C100.807 48.362 100.714 48.9965 100.394 49.5058C100.074 50.0151 99.5669 50.3244 98.8722 50.4336L98.8417 50.4291L98.6254 49.2029C99.4846 49.0514 99.8418 48.5653 99.6971 47.7447C99.631 47.3696 99.4258 47.0967 99.0817 46.926C98.7414 46.7579 98.3292 46.7166 97.8451 46.8019L96.5852 47.0241C96.0948 47.1106 95.7179 47.2977 95.4546 47.5854C95.1945 47.8726 95.0995 48.2149 95.1696 48.6124C95.2397 49.0099 95.3956 49.2849 95.6373 49.4373C95.8791 49.5897 96.2115 49.6286 96.6347 49.5539Z" fill="white"/>
<path d="M96.5603 64.4542L97.7048 64.656C98.2049 64.7442 98.6306 64.692 98.9818 64.4994C99.3363 64.3074 99.5512 63.9982 99.6263 63.5718C99.7015 63.1455 99.6064 62.7849 99.3411 62.4902C99.0784 62.1993 98.6937 62.0092 98.1872 61.9199L97.0428 61.7181C96.5331 61.6282 96.1015 61.6761 95.7482 61.8617C95.3975 62.051 95.1848 62.3573 95.1102 62.7805C95.035 63.2068 95.1298 63.569 95.3946 63.8669C95.662 64.1685 96.0506 64.3643 96.5603 64.4542ZM97.473 65.9142L96.3382 65.7141C95.556 65.5761 94.9581 65.2178 94.5445 64.6392C94.1303 64.0637 93.9921 63.3849 94.1301 62.6027C94.2205 62.0898 94.4146 61.6546 94.7123 61.2972C95.0132 60.9404 95.3848 60.6886 95.8272 60.5419C96.2728 60.3957 96.752 60.3678 97.2649 60.4582L98.3998 60.6583C99.1788 60.7957 99.7756 61.1505 100.19 61.7227C100.608 62.2956 100.749 62.9699 100.612 63.7457C100.475 64.5247 100.111 65.115 99.5214 65.5168C98.9348 65.9191 98.252 66.0515 97.473 65.9142Z" fill="white"/>
<path d="M96.6499 75.8068L95.8125 77.2572L90.9164 76.3137L90.9018 76.339L94.1621 80.1158L93.3222 81.5705L87.7827 78.3722L88.4248 77.2601L90.0782 78.2147L92.4613 79.7315L92.4778 79.7128L89.2329 75.8604L89.6626 75.1162L94.6062 75.997L94.6142 75.9734L92.1217 74.6753L90.4683 73.7207L91.1104 72.6086L96.6499 75.8068Z" fill="white"/>
<path d="M84.8382 89.4054L83.4886 87.797L82.5198 88.6099C82.2505 88.8358 82.1042 89.0818 82.0809 89.3478C82.0576 89.6138 82.1475 89.8678 82.3505 90.1096C82.5555 90.354 82.7921 90.4891 83.0602 90.5148C83.3303 90.5431 83.6001 90.4442 83.8694 90.2183L84.8382 89.4054ZM81.8827 87.8506L82.8514 87.0377L81.3606 85.2609L82.3443 84.4355L86.4559 89.3355L84.5034 90.9738C83.9423 91.4446 83.3804 91.6739 82.8177 91.6616C82.2546 91.654 81.7732 91.412 81.3736 90.9357C80.976 90.4619 80.8201 89.9469 80.9057 89.3906C80.9934 88.8368 81.3191 88.3234 81.8827 87.8506Z" fill="white"/>
<path d="M69.8647 99.0586L68.658 99.4978L67.2067 95.5106C66.964 94.8437 66.994 94.2456 67.2967 93.7163C67.5994 93.187 68.1194 92.7881 68.8566 92.5198C69.5907 92.2526 70.2418 92.2235 70.8097 92.4325C71.3788 92.6445 71.7853 93.0855 72.0291 93.7554L73.4803 97.7426L72.269 98.1835L70.8178 94.1963C70.6753 93.8047 70.4654 93.5468 70.188 93.4226C69.9077 93.2995 69.5748 93.3081 69.1893 93.4483C68.8039 93.5886 68.5428 93.7945 68.4061 94.066C68.2674 94.3416 68.2699 94.6768 68.4135 95.0714L69.8647 99.0586Z" fill="white"/>
<path d="M52.5135 100.396V99.4102H54.325V94H55.6092V99.4102H57.411V100.396H52.5135Z" fill="white"/>
<path d="M38.7358 95.5259L39.0748 94.5944L41.5663 95.5013L42.1908 93.7852L39.2772 92.7248L39.6146 91.7979L43.7349 93.2976L41.5472 99.3083L37.436 97.812L37.7734 96.8851L40.6778 97.9423L41.2272 96.4327L38.7358 95.5259Z" fill="white"/>
<path d="M30.6174 86.2812L31.6011 87.1066L27.4895 92.0066L25.638 90.453C25.0769 89.9822 24.746 89.4878 24.6452 88.9698C24.5445 88.4519 24.6855 87.9647 25.0684 87.5084C25.4848 87.0121 26.0499 86.868 26.7635 87.0758C26.3559 86.4576 26.4105 85.8405 26.9274 85.2246L27.2318 84.8618C27.3636 84.7047 27.4692 84.5383 27.5486 84.3627C27.6259 84.1896 27.6516 84.0348 27.6258 83.8985L27.6855 83.8274L28.6991 84.678C28.745 84.9119 28.5817 85.2509 28.2093 85.6947L27.9174 86.0426C27.7123 86.287 27.6206 86.533 27.6423 86.7806C27.6594 87.0287 27.7901 87.2552 28.0345 87.4603L28.9727 88.2412L30.6174 86.2812ZM27.1366 90.4294L28.3356 89.0005L27.4865 88.288C26.9379 87.8277 26.469 87.8294 26.0798 88.2933C25.8873 88.5227 25.8053 88.7598 25.8336 89.0045C25.8619 89.2493 26.007 89.4815 26.2689 89.7012L27.1366 90.4294Z" fill="white"/>
<path d="M13.5931 62.3106L13.8153 63.5704L15.6329 63.2499L15.4278 62.0862C15.3062 61.397 14.9569 61.1033 14.3799 61.205C13.7452 61.3169 13.4829 61.6854 13.5931 62.3106ZM11.2763 64.0181L12.9449 63.7239L12.7847 62.8151C12.7242 62.472 12.6092 62.2229 12.4397 62.0677C12.267 61.9131 12.0412 61.8603 11.7623 61.9095C11.4834 61.9587 11.2908 62.0852 11.1846 62.289C11.0784 62.4928 11.0581 62.7807 11.1237 63.1526L11.2763 64.0181ZM16.3991 61.915L16.8273 64.3433L10.528 65.4541L10.1524 63.3238C10.019 62.5673 10.0622 61.9597 10.2822 61.5011C10.4983 61.0399 10.8917 60.759 11.4623 60.6584C11.7573 60.6064 12.0324 60.6389 12.2877 60.7558C12.5424 60.8696 12.7532 61.0621 12.9201 61.3335C12.9352 60.9507 13.0557 60.6402 13.2814 60.4021C13.504 60.1645 13.7964 60.0138 14.1586 59.9499C14.7613 59.8437 15.2529 59.9603 15.6334 60.2998C16.0133 60.636 16.2685 61.1744 16.3991 61.915Z" fill="white"/>
<path d="M16.34 49.4478L16.117 50.7125L9.81774 49.6018L10.2374 47.2215C10.3646 46.5002 10.6273 45.9664 11.0255 45.6201C11.4237 45.2739 11.9162 45.1525 12.5028 45.2559C13.1408 45.3684 13.5481 45.7856 13.7249 46.5077C14.0565 45.8455 14.6182 45.5843 15.4101 45.7239L15.8765 45.8062C16.0785 45.8418 16.2753 45.85 16.4671 45.831C16.6557 45.8113 16.8026 45.7562 16.9078 45.6657L16.9991 45.6818L16.7694 46.985C16.5897 47.1417 16.2145 47.1697 15.6439 47.0691L15.1967 46.9903C14.8825 46.9349 14.6236 46.9785 14.42 47.1211C14.2137 47.2599 14.0829 47.4864 14.0275 47.8005L13.8203 49.0035L16.34 49.4478ZM11.0073 48.5075L12.8442 48.8314L13.0366 47.7399C13.161 47.0346 12.925 46.6294 12.3288 46.5243C12.0338 46.4722 11.7875 46.5197 11.5897 46.6666C11.3919 46.8136 11.2633 47.0553 11.204 47.3919L11.0073 48.5075Z" fill="white"/>
<path d="M22.1004 34.1373L20.6864 33.8227L19.5634 35.7679L20.5428 36.8352L19.8958 37.9558L15.4574 32.8504L16.1141 31.7129L22.7498 33.0125L22.1004 34.1373ZM17.0712 33.0435L18.851 34.9901L19.6591 33.5905L17.0858 33.0182L17.0712 33.0435Z" fill="white"/>
<path d="M28.069 18.5009L32.1805 23.4008L31.2005 24.2232L26.4096 22.532L26.3903 22.5546L29.1994 25.9023L28.2157 26.7278L24.1041 21.8278L25.0878 21.0023L29.8724 22.686L29.8917 22.6634L27.089 19.3232L28.069 18.5009Z" fill="white"/>
<path d="M39.8106 13.3734L39.0122 13.664L40.5253 17.821L41.3236 17.5305C41.7519 17.3746 42.036 17.1083 42.1761 16.7317C42.3192 16.354 42.3039 15.9266 42.1302 15.4494L41.7645 14.4445C41.5919 13.9704 41.3294 13.6347 40.977 13.4373C40.6276 13.2388 40.2388 13.2175 39.8106 13.3734ZM41.7206 18.4356L39.6559 19.1871L37.4681 13.1764L39.5329 12.4249C40.2762 12.1543 40.9686 12.1673 41.61 12.4639C42.2533 12.7563 42.7097 13.2726 42.9792 14.0128L43.3415 15.0085C43.611 15.7488 43.5932 16.4376 43.2883 17.0752C42.9865 17.7116 42.4639 18.165 41.7206 18.4356Z" fill="white"/>
<circle cx="93" cy="34" r="2" fill="white"/>
<circle cx="18" cy="76" r="2" fill="white"/>
<defs>
<clipPath id="clip0_112_789">
<rect width="26" height="26" fill="white" transform="translate(42 42)"/>
</clipPath>
</defs>
</svg>
