<svg width="20" height="20" viewBox="0 0 20 20" fill="none" xmlns="http://www.w3.org/2000/svg">
<g clip-path="url(#clip0_42_777)">
<path fill-rule="evenodd" clip-rule="evenodd" d="M1 2.66667C1 1.95942 1.28095 1.28115 1.78105 0.781048C2.28115 0.280951 2.95942 0 3.66667 0H17C17.7072 0 18.3855 0.280951 18.8856 0.781048C19.3857 1.28115 19.6667 1.95942 19.6667 2.66667V13.3333C19.6667 14.0406 19.3857 14.7189 18.8856 15.219C18.3855 15.719 17.7072 16 17 16H14.04L14.204 16.652L15.276 17.724C15.4624 17.9105 15.5894 18.148 15.6408 18.4066C15.6922 18.6652 15.6658 18.9333 15.5649 19.1769C15.464 19.4205 15.2932 19.6287 15.0739 19.7752C14.8547 19.9217 14.597 19.9999 14.3333 20H6.33333C6.06967 19.9999 5.81193 19.9217 5.59272 19.7752C5.37351 19.6287 5.20266 19.4205 5.10176 19.1769C5.00087 18.9333 4.97446 18.6652 5.02589 18.4066C5.07731 18.148 5.20425 17.9105 5.39067 17.724L6.46267 16.652L6.62667 16H3.66667C2.95942 16 2.28115 15.719 1.78105 15.219C1.28095 14.7189 1 14.0406 1 13.3333V2.66667ZM8.69467 12H3.66667V2.66667H17V12H8.69467Z" fill="white"/>
</g>
<defs>
<clipPath id="clip0_42_777">
<rect width="20" height="20" fill="white"/>
</clipPath>
</defs>
</svg>
