<svg width="190" height="150" viewBox="0 0 190 150" fill="none" xmlns="http://www.w3.org/2000/svg">
<rect width="190" height="150" fill="#1BABFF"/>
<g clip-path="url(#clip0_115_689)">
<path d="M95 105H94.0044L100.254 88.2525H108.749C110.253 88.2525 111.747 87.0019 112.246 85.7531L119.004 67.5019C119.999 64.5037 118.252 62.0044 115.254 62.0044H103.496L88.2519 104.25C74.7462 100.999 65 89.25 65 75.0019C65 61.2525 74.2475 49.7475 87.0012 45.9975L81.2487 62.0025L71.5025 88.2525H77.7519L85.7506 65.9963H90.4962L82.4975 88.2525H88.7469L96.2469 67.5C97.2425 64.5019 95.7481 62.0025 92.4969 62.0025H87.4962L93.7456 45H94.9962C111.5 45 124.996 58.4963 124.996 75C124.996 91.5037 111.5 105 94.9962 105H95ZM113.251 65.7525H108.496L101.748 84.0037H106.503L113.251 65.7525Z" fill="white"/>
</g>
<defs>
<clipPath id="clip0_115_689">
<rect width="60" height="60" fill="white" transform="translate(65 45)"/>
</clipPath>
</defs>
</svg>
