<svg width="50" height="87" viewBox="0 0 50 87" fill="none" xmlns="http://www.w3.org/2000/svg">
<path d="M20.254 86.1476V75.816C20.254 74.9986 20.9352 74.7185 21.2758 74.6807H27.4067C28.6783 74.6807 28.9205 75.4376 28.8826 75.816V79.5626C28.8826 79.7897 27.8608 80.2438 27.8608 80.3574C28.1333 80.2665 28.6556 80.8494 28.8826 81.1521V86.1476H25.5901V82.1739L23.433 82.6281V86.1476H20.254Z" fill="white"/>
<path d="M25.5901 77.6328H23.3195V79.5629L25.5901 78.9952V77.6328Z" fill="#180862"/>
<path d="M19.1187 76.7245C17.3779 76.9895 13.8734 77.5193 13.7826 77.5193H13.6691V78.8817L19.1187 77.7464V77.9734V86.1479H10.4901V83.8772L15.8262 82.9689V81.6065L10.4901 82.7419C10.528 80.9253 10.6036 76.997 10.6036 75.8163C10.6036 74.6355 11.5876 74.3403 12.0796 74.3403H17.5292C18.8008 74.3403 19.1187 75.2486 19.1187 75.7027V76.7245Z" fill="white"/>
<path d="M38.4195 76.7245C36.6786 76.9895 33.1742 77.5193 33.0834 77.5193H32.9699V78.8817L38.4195 77.7464V77.9734V86.1479H29.7909V83.8772L35.127 82.9689V81.6065L29.7909 82.7419C29.8287 80.9253 29.9044 76.997 29.9044 75.8163C29.9044 74.6355 30.8884 74.3403 31.3804 74.3403H36.83C38.1016 74.3403 38.4195 75.2486 38.4195 75.7027V76.7245Z" fill="white"/>
<path d="M20.027 31.8784C18.2104 33.3543 14.5092 36.3516 14.2367 36.5333C10.7172 33.5814 3.1558 27.2008 1.06677 25.2934C-0.749776 23.2952 0.158497 21.0548 0.839702 20.1844C6.06227 15.7187 17.3703 5.99258 20.8217 2.81362C24.2732 -0.365338 27.331 0.278023 28.4285 0.997073L50 19.049C48.2591 20.6006 44.7093 23.7493 44.4368 23.931C44.1643 24.1126 32.213 13.7886 26.2714 8.60386L9.69537 22.9092L20.027 31.8784Z" fill="#ED6B5D"/>
<path d="M29.973 37.6685C31.7896 36.1926 35.4908 33.1953 35.7633 33.0136C39.2828 35.9655 46.8442 42.3461 48.9332 44.2535C50.7498 46.2517 49.8415 48.4921 49.1603 49.3625C43.9377 53.8282 32.6297 63.5543 29.1783 66.7333C25.7268 69.9122 22.669 69.2689 21.5715 68.5498L0 50.4979C1.74086 48.9462 5.29069 45.7976 5.56318 45.6159C5.83566 45.4342 17.787 55.7583 23.7286 60.943L40.3046 46.6377L29.973 37.6685Z" fill="#ED6B5D"/>
<path d="M43.0744 24.8392L19.9134 43.7994C23.2059 49.4762 34.2188 46.6378 34.2188 46.9784C22.8653 54.0629 11.0956 48.4165 6.62994 44.7077L30.018 25.5204C28.1106 21.524 19.9891 21.6603 16.1668 22.2279C27.5202 15.5067 38.8358 21.1683 43.0744 24.8392Z" fill="white"/>
</svg>
