<svg width="50" height="87" viewBox="0 0 50 87" fill="none" xmlns="http://www.w3.org/2000/svg">
<path d="M20.2541 86.1477V75.8161C20.2541 74.9987 20.9353 74.7186 21.2759 74.6808H27.4067C28.6783 74.6808 28.9205 75.4377 28.8827 75.8161V79.5627C28.8827 79.7898 27.8608 80.2439 27.8608 80.3575C28.1333 80.2666 28.6556 80.8494 28.8827 81.1522V86.1477H25.5902V82.174L23.433 82.6281V86.1477H20.2541Z" fill="white"/>
<path d="M25.5901 77.6327H23.3195V79.5627L25.5901 78.9951V77.6327Z" fill="#1BABFF"/>
<path d="M19.1187 76.7244C17.3778 76.9893 13.8734 77.5191 13.7826 77.5191H13.669V78.8815L19.1187 77.7462V77.9733V86.1477H10.4901V83.8771L15.8262 82.9688V81.6064L10.4901 82.7417C10.5279 80.9252 10.6036 76.9969 10.6036 75.8161C10.6036 74.6354 11.5876 74.3402 12.0796 74.3402H17.5292C18.8008 74.3402 19.1187 75.2485 19.1187 75.7026V76.7244Z" fill="white"/>
<path d="M38.4195 76.7244C36.6786 76.9893 33.1742 77.5191 33.0834 77.5191H32.9699V78.8815L38.4195 77.7462V77.9733V86.1477H29.7909V83.8771L35.127 82.9688V81.6064L29.7909 82.7417C29.8287 80.9252 29.9044 76.9969 29.9044 75.8161C29.9044 74.6354 30.8884 74.3402 31.3804 74.3402H36.83C38.1016 74.3402 38.4195 75.2485 38.4195 75.7026V76.7244Z" fill="white"/>
<path d="M20.027 31.8784C18.2104 33.3543 14.5092 36.3516 14.2367 36.5333C10.7172 33.5814 3.1558 27.2008 1.06677 25.2934C-0.749776 23.2952 0.158497 21.0548 0.839702 20.1844C6.06227 15.7187 17.3703 5.99258 20.8217 2.81362C24.2732 -0.365338 27.331 0.278023 28.4285 0.997073L50 19.049C48.2591 20.6006 44.7093 23.7493 44.4368 23.931C44.1643 24.1126 32.213 13.7886 26.2714 8.60386L9.69537 22.9092L20.027 31.8784Z" fill="#ED6B5D"/>
<path d="M29.973 37.6687C31.7896 36.1927 35.4908 33.1954 35.7633 33.0138C39.2828 35.9656 46.8442 42.3462 48.9332 44.2536C50.7498 46.2518 49.8415 48.4922 49.1603 49.3627C43.9377 53.8283 32.6297 63.5545 29.1783 66.7334C25.7268 69.9124 22.669 69.269 21.5715 68.55L0 50.498C1.74086 48.9464 5.29069 45.7977 5.56318 45.616C5.83566 45.4344 17.787 55.7584 23.7286 60.9432L40.3046 46.6379L29.973 37.6687Z" fill="#ED6B5D"/>
<path d="M43.0744 24.8393L19.9134 43.7995C23.2059 49.4762 34.2188 46.6379 34.2188 46.9785C22.8653 54.063 11.0956 48.4166 6.62994 44.7078L30.018 25.5205C28.1106 21.5241 19.9891 21.6603 16.1668 22.228C27.5202 15.5068 38.8358 21.1684 43.0744 24.8393Z" fill="white"/>
</svg>
