<svg width="17" height="20" viewBox="0 0 17 20" fill="none" xmlns="http://www.w3.org/2000/svg">
<g clip-path="url(#clip0_42_692)">
<path d="M14.1708 10.8333V2.5H8.33748V17.3047C9.37047 16.7578 10.2949 16.1632 11.1109 15.5208C13.1509 13.9236 14.1708 12.3611 14.1708 10.8333ZM16.6708 0.833333V10.8333C16.6708 11.5799 16.5254 12.3199 16.2346 13.0534C15.9438 13.7869 15.5836 14.4379 15.1539 15.0065C14.7242 15.5751 14.212 16.1285 13.6174 16.6667C13.0228 17.2049 12.4738 17.6519 11.9703 18.0078C11.4668 18.3637 10.9417 18.7001 10.3948 19.0169C9.8479 19.3338 9.45944 19.5486 9.22941 19.6615C8.99938 19.7743 8.81491 19.8611 8.67603 19.9219C8.57186 19.974 8.45901 20 8.33748 20C8.21596 20 8.10311 19.974 7.99894 19.9219C7.86005 19.8611 7.67559 19.7743 7.44556 19.6615C7.21552 19.5486 6.82707 19.3338 6.28019 19.0169C5.73332 18.7001 5.20814 18.3637 4.70467 18.0078C4.2012 17.6519 3.65215 17.2049 3.05754 16.6667C2.46292 16.1285 1.95076 15.5751 1.52108 15.0065C1.09139 14.4379 0.731147 13.7869 0.440348 13.0534C0.14955 12.3199 0.00415039 11.5799 0.00415039 10.8333V0.833333C0.00415039 0.607639 0.0866157 0.412326 0.251546 0.247396C0.416477 0.0824653 0.611789 0 0.837484 0H15.8375C16.0632 0 16.2585 0.0824653 16.4234 0.247396C16.5884 0.412326 16.6708 0.607639 16.6708 0.833333Z" fill="white"/>
</g>
<defs>
<clipPath id="clip0_42_692">
<rect width="16.675" height="20" fill="white"/>
</clipPath>
</defs>
</svg>
