<svg width="14" height="14" viewBox="0 0 14 14" fill="none" xmlns="http://www.w3.org/2000/svg">
<g opacity="0.3">
<path d="M8.91854 8.56152C8.83293 8.53352 8.29177 8.2896 8.62993 7.26168H8.62508C9.50654 6.35383 10.1802 4.89298 10.1802 3.45475C10.1802 1.24329 8.70962 0.0839844 7.00054 0.0839844C5.29039 0.0839844 3.82793 1.24275 3.82793 3.45475C3.82793 4.89891 4.49777 6.36568 5.38462 7.27137C5.73031 8.17814 5.11216 8.51468 4.98292 8.56152C3.19308 9.20929 1.09308 10.3891 1.09308 11.5538V11.9904C1.09308 13.5773 4.16985 13.9381 7.01723 13.9381C9.86893 13.9381 12.9069 13.5773 12.9069 11.9904V11.5538C12.9069 10.3541 10.7967 9.18344 8.91854 8.56152ZM5.94839 13.251C5.94839 11.8784 6.82231 10.0256 6.82231 10.0256L6.21762 9.55122C6.21762 9.09783 7 8.62344 7 8.62344C7 8.62344 7.78023 9.10537 7.78023 9.55122L7.17769 10.0256C7.17769 10.0256 8.05162 11.8714 8.05162 13.2661C8.05162 13.4847 5.94839 13.4341 5.94839 13.251Z" fill="black"/>
</g>
</svg>
